<svg xmlns="http://www.w3.org/2000/svg" xmlns:xlink="http://www.w3.org/1999/xlink" contentStyleType="text/css" height="2649px" preserveAspectRatio="none" style="width:936px;height:2649px;background:#FFFFFF;" version="1.1" viewBox="0 0 936 2649" width="936px" zoomAndPan="magnify"><title>STEMMate A3 prototype v1.1 - annotated user flow (WF1, WF2, WF3)</title><defs/><g><text fill="#000000" font-family="Arial" font-size="14" font-weight="bold" lengthAdjust="spacing" textLength="468.7744" x="232.5831" y="34.9659">STEMMate A3 prototype v1.1 - annotated user flow (WF1, WF2, WF3)</text><ellipse cx="462.4703" cy="60.0679" fill="#222222" rx="10" ry="10" style="stroke:#222222;stroke-width:1.0;"/><path d="M572.6968,84.853 L572.6968,112.412 L552.6968,116.412 L572.6968,120.412 L572.6968,147.9711 A0,0 0 0 0 572.6968,147.9711 L863.148,147.9711 A0,0 0 0 0 863.148,147.9711 L863.148,94.853 L853.148,84.853 L572.6968,84.853 A0,0 0 0 0 572.6968,84.853 " fill="#FBEED9" style="stroke:#181818;stroke-width:0.5;"/><path d="M853.148,84.853 L853.148,94.853 L863.148,94.853 L853.148,84.853 " fill="#FBEED9" style="stroke:#181818;stroke-width:0.5;"/><text fill="#000000" font-family="Arial" font-size="13" lengthAdjust="spacing" textLength="146.8741" x="578.6968" y="103.75">SR-01 local access check</text><text fill="#000000" font-family="Arial" font-size="13" lengthAdjust="spacing" textLength="269.4512" x="578.6968" y="121.456">wrong PIN -&gt; text error, 5 tries -&gt; 30 s pause</text><text fill="#000000" font-family="Arial" font-size="13" lengthAdjust="spacing" textLength="185.8352" x="578.6968" y="139.1621">AR-01: paste allowed (SC 3.3.8)</text><rect fill="#FFFFFF" height="52.6882" rx="12.5" ry="12.5" style="stroke:#0B5D6B;stroke-width:0.5;" width="180.4531" x="372.2437" y="90.0679"/><text fill="#000000" font-family="Arial" font-size="12" lengthAdjust="spacing" textLength="160.4531" x="382.2437" y="112.896">S01 Sign in on shared device</text><text fill="#000000" font-family="Arial" font-size="12" lengthAdjust="spacing" textLength="159.9012" x="382.2437" y="129.2401">(choose profile + 4-digit PIN)</text><rect fill="#FFFFFF" height="36.3441" rx="12.5" ry="12.5" style="stroke:#0B5D6B;stroke-width:0.5;" width="331.9423" x="296.4991" y="167.9711"/><text fill="#000000" font-family="Arial" font-size="12" lengthAdjust="spacing" textLength="311.9423" x="306.4991" y="190.7991">S02 Home (status: Online / Offline shown as icon + text)</text><rect fill="none" height="860.9064" style="stroke:#000000;stroke-width:1.5;" width="914.4368" x="11.5037" y="214.3152"/><path d="M351.4264,214.3152 L351.4264,226.3831 L341.4264,236.3831 L11.5037,236.3831 " fill="none" style="stroke:#000000;stroke-width:1.5;"/><text fill="#000000" font-family="Arial" font-size="14" lengthAdjust="spacing" textLength="329.9227" x="14.5037" y="230.2811">WF1 Find and save an activity offline (FR-01, FR-02)</text><rect fill="#FFFFFF" height="52.6882" rx="12.5" ry="12.5" style="stroke:#0B5D6B;stroke-width:0.5;" width="246.4896" x="339.2255" y="253.3831"/><text fill="#000000" font-family="Arial" font-size="12" lengthAdjust="spacing" textLength="99.7327" x="349.2255" y="276.2112">S03 Find activities</text><text fill="#000000" font-family="Arial" font-size="12" lengthAdjust="spacing" textLength="226.4896" x="349.2255" y="292.5553">(level, topic, max time, materials, words)</text><path d="M594.423,375.5623 L594.423,403.1213 L574.423,407.1213 L594.423,411.1213 L594.423,438.6803 A0,0 0 0 0 594.423,438.6803 L855.2862,438.6803 A0,0 0 0 0 855.2862,438.6803 L855.2862,385.5623 L845.2862,375.5623 L594.423,375.5623 A0,0 0 0 0 594.423,375.5623 " fill="#FBEED9" style="stroke:#181818;stroke-width:0.5;"/><path d="M845.2862,375.5623 L845.2862,385.5623 L855.2862,385.5623 L845.2862,375.5623 " fill="#FBEED9" style="stroke:#181818;stroke-width:0.5;"/><text fill="#000000" font-family="Arial" font-size="13" lengthAdjust="spacing" textLength="131.8071" x="600.423" y="394.4593">Fix from A2 feedback:</text><text fill="#000000" font-family="Arial" font-size="13" lengthAdjust="spacing" textLength="161.1481" x="600.423" y="412.1653">no result card is rendered,</text><text fill="#000000" font-family="Arial" font-size="13" lengthAdjust="spacing" textLength="239.8632" x="600.423" y="429.8713">so a missing activity cannot be selected</text><rect fill="#FFFFFF" height="52.6882" rx="12.5" ry="12.5" style="stroke:#0B5D6B;stroke-width:0.5;" width="223.9055" x="350.5175" y="380.7772"/><text fill="#000000" font-family="Arial" font-size="12" lengthAdjust="spacing" textLength="165.6372" x="360.5175" y="403.6053">S03b "No matching activities"</text><text fill="#000000" font-family="Arial" font-size="12" lengthAdjust="spacing" textLength="203.9055" x="360.5175" y="419.9494">remove-one-filter buttons + Clear all</text><rect fill="#FFFFFF" height="36.3441" rx="12.5" ry="12.5" style="stroke:#0B5D6B;stroke-width:0.5;" width="90.8845" x="417.028" y="464.0673"/><text fill="#000000" font-family="Arial" font-size="12" lengthAdjust="spacing" textLength="70.8845" x="427.028" y="486.8954">Adjust filters</text><ellipse cx="462.4703" cy="531.4114" fill="none" rx="11" ry="11" style="stroke:#222222;stroke-width:1.0;"/><ellipse cx="462.4703" cy="531.4114" fill="#222222" rx="6" ry="6" style="stroke:#222222;stroke-width:1.0;"/><polygon fill="#FFFFFF" points="407.3826,326.0713,517.5579,326.0713,529.5579,338.0713,517.5579,350.0713,407.3826,350.0713,395.3826,338.0713,407.3826,326.0713" style="stroke:#0B5D6B;stroke-width:0.5;"/><text fill="#000000" font-family="Arial" font-size="11" lengthAdjust="spacing" textLength="13.4529" x="466.4703" y="361.8302">no</text><text fill="#000000" font-family="Arial" font-size="11" lengthAdjust="spacing" textLength="110.1752" x="407.3826" y="342.3393">Any activity matches?</text><text fill="#000000" font-family="Arial" font-size="11" lengthAdjust="spacing" textLength="17.0829" x="529.5579" y="334.8483">yes</text><rect fill="#FFFFFF" height="52.6882" rx="12.5" ry="12.5" style="stroke:#0B5D6B;stroke-width:0.5;" width="328.1622" x="298.3892" y="584.4114"/><text fill="#000000" font-family="Arial" font-size="12" lengthAdjust="spacing" textLength="98.4607" x="308.3892" y="607.2395">S04 Activity detail</text><text fill="#000000" font-family="Arial" font-size="12" lengthAdjust="spacing" textLength="308.1622" x="308.3892" y="623.5836">(size shown before download, image + text alternative)</text><rect fill="#FFFFFF" height="36.3441" rx="12.5" ry="12.5" style="stroke:#0B5D6B;stroke-width:0.5;" width="173.9371" x="375.5017" y="657.0996"/><text fill="#000000" font-family="Arial" font-size="12" lengthAdjust="spacing" textLength="153.9371" x="385.5017" y="679.9277">Select "Save for offline use"</text><polygon fill="#FFFFFF" points="125.2781,757.4437,164.1188,757.4437,176.1188,769.4437,164.1188,781.4437,125.2781,781.4437,113.2781,769.4437,125.2781,757.4437" style="stroke:#0B5D6B;stroke-width:0.5;"/><text fill="#000000" font-family="Arial" font-size="11" lengthAdjust="spacing" textLength="13.4529" x="148.6985" y="793.2026">no</text><text fill="#000000" font-family="Arial" font-size="11" lengthAdjust="spacing" textLength="38.8407" x="125.2781" y="773.7117">Online?</text><rect fill="#FFFFFF" height="36.3441" rx="12.5" ry="12.5" style="stroke:#0B5D6B;stroke-width:0.5;" width="226.3895" x="31.5037" y="816.4256"/><text fill="#000000" font-family="Arial" font-size="12" lengthAdjust="spacing" textLength="206.3895" x="41.5037" y="839.2537">S04 error "Cannot save while offline"</text><polygon fill="#FFFFFF" points="319.2083,757.4437,432.1995,757.4437,444.1995,769.4437,432.1995,781.4437,319.2083,781.4437,307.2083,769.4437,319.2083,757.4437" style="stroke:#0B5D6B;stroke-width:0.5;"/><text fill="#000000" font-family="Arial" font-size="11" lengthAdjust="spacing" textLength="13.4529" x="379.7039" y="793.2026">no</text><text fill="#000000" font-family="Arial" font-size="11" lengthAdjust="spacing" textLength="112.9912" x="319.2083" y="773.7117">Enough device space?</text><text fill="#000000" font-family="Arial" font-size="11" lengthAdjust="spacing" textLength="17.0829" x="444.1995" y="766.2208">yes</text><rect fill="#FFFFFF" height="52.6882" rx="12.5" ry="12.5" style="stroke:#0B5D6B;stroke-width:0.5;" width="195.6213" x="277.8932" y="816.4256"/><text fill="#000000" font-family="Arial" font-size="12" lengthAdjust="spacing" textLength="175.6213" x="287.8932" y="839.2537">S04b error "Not enough space"</text><text fill="#000000" font-family="Arial" font-size="12" lengthAdjust="spacing" textLength="111.2648" x="287.8932" y="855.5978">+ Free up space link</text><rect fill="#FFFFFF" height="36.3441" rx="12.5" ry="12.5" style="stroke:#0B5D6B;stroke-width:0.5;" width="188.6972" x="601.7731" y="797.1892"/><text fill="#000000" font-family="Arial" font-size="12" lengthAdjust="spacing" textLength="168.6972" x="611.7731" y="820.0173">S04c progress bar (20% steps)</text><polygon fill="#FFFFFF" points="651.528,868.5333,740.7154,868.5333,752.7154,880.5333,740.7154,892.5333,651.528,892.5333,639.528,880.5333,651.528,868.5333" style="stroke:#0B5D6B;stroke-width:0.5;"/><text fill="#000000" font-family="Arial" font-size="11" lengthAdjust="spacing" textLength="89.1873" x="651.528" y="884.8013">Connection held?</text><text fill="#000000" font-family="Arial" font-size="11" lengthAdjust="spacing" textLength="13.4529" x="626.0751" y="877.3103">no</text><text fill="#000000" font-family="Arial" font-size="11" lengthAdjust="spacing" textLength="17.0829" x="752.7154" y="877.3103">yes</text><rect fill="#FFFFFF" height="52.6882" rx="12.5" ry="12.5" style="stroke:#0B5D6B;stroke-width:0.5;" width="185.2532" x="503.5145" y="902.5333"/><text fill="#000000" font-family="Arial" font-size="12" lengthAdjust="spacing" textLength="165.2532" x="513.5145" y="925.3614">S04e "Download interrupted"</text><text fill="#000000" font-family="Arial" font-size="12" lengthAdjust="spacing" textLength="120.6009" x="513.5145" y="941.7055">partial files discarded</text><rect fill="#FFFFFF" height="36.3441" rx="12.5" ry="12.5" style="stroke:#0B5D6B;stroke-width:0.5;" width="174.6691" x="708.7677" y="902.5333"/><text fill="#000000" font-family="Arial" font-size="12" lengthAdjust="spacing" textLength="154.6691" x="718.7677" y="925.3614">S04d "Saved on this device"</text><polygon fill="#FFFFFF" points="462.4703,713.4437,474.4703,725.4437,462.4703,737.4437,450.4703,725.4437,462.4703,713.4437" style="stroke:#0B5D6B;stroke-width:0.5;"/><polygon fill="#FFFFFF" points="435.8395,995.2215,489.1011,995.2215,501.1011,1007.2215,489.1011,1019.2215,435.8395,1019.2215,423.8395,1007.2215,435.8395,995.2215" style="stroke:#0B5D6B;stroke-width:0.5;"/><text fill="#000000" font-family="Arial" font-size="11" lengthAdjust="spacing" textLength="53.2616" x="435.8395" y="1011.4895">Retry save</text><text fill="#000000" font-family="Arial" font-size="11" lengthAdjust="spacing" textLength="164.6578" x="501.1011" y="1003.9986">re-enters the same save routine</text><polygon fill="#FFFFFF" points="462.4703,1039.2215,474.4703,1051.2215,462.4703,1063.2215,450.4703,1051.2215,462.4703,1039.2215" style="stroke:#0B5D6B;stroke-width:0.5;"/><rect fill="none" height="501.8208" style="stroke:#000000;stroke-width:1.5;" width="655.6744" x="116.0929" y="1085.2215"/><path d="M470.8975,1085.2215 L470.8975,1097.2895 L460.8975,1107.2895 L116.0929,1107.2895 " fill="none" style="stroke:#000000;stroke-width:1.5;"/><text fill="#000000" font-family="Arial" font-size="14" lengthAdjust="spacing" textLength="344.8046" x="119.0929" y="1101.1875">WF2 Build a session plan offline (FR-03, FR-04, PR-01)</text><rect fill="#FFFFFF" height="52.6882" rx="12.5" ry="12.5" style="stroke:#0B5D6B;stroke-width:0.5;" width="398.7349" x="263.1028" y="1124.2895"/><text fill="#000000" font-family="Arial" font-size="12" lengthAdjust="spacing" textLength="247.7178" x="273.1028" y="1147.1176">S06 Plan editor pre-filled from saved activity</text><text fill="#000000" font-family="Arial" font-size="12" lengthAdjust="spacing" textLength="378.7349" x="273.1028" y="1163.4617">steps + minutes, materials checklist, safety, inclusion, learner count</text><rect fill="#FFFFFF" height="36.3441" rx="12.5" ry="12.5" style="stroke:#0B5D6B;stroke-width:0.5;" width="236.2415" x="344.3495" y="1196.9777"/><text fill="#000000" font-family="Arial" font-size="12" lengthAdjust="spacing" textLength="216.2415" x="354.3495" y="1219.8058">Edit (autosave 0.7 s after each change)</text><polygon fill="#FFFFFF" points="402.3062,1253.3218,522.6343,1253.3218,534.6343,1265.3218,522.6343,1277.3218,402.3062,1277.3218,390.3062,1265.3218,402.3062,1253.3218" style="stroke:#0B5D6B;stroke-width:0.5;"/><text fill="#000000" font-family="Arial" font-size="11" lengthAdjust="spacing" textLength="120.3282" x="402.3062" y="1269.5898">Draft written to device?</text><text fill="#000000" font-family="Arial" font-size="11" lengthAdjust="spacing" textLength="77.9565" x="312.3497" y="1262.0988">no: storage full</text><text fill="#000000" font-family="Arial" font-size="11" lengthAdjust="spacing" textLength="17.0829" x="534.6343" y="1262.0988">yes</text><rect fill="#FFFFFF" height="52.6882" rx="12.5" ry="12.5" style="stroke:#0B5D6B;stroke-width:0.5;" width="266.5418" x="194.3556" y="1287.3218"/><text fill="#000000" font-family="Arial" font-size="12" lengthAdjust="spacing" textLength="196.2374" x="204.3556" y="1310.1499">S06c "Draft not saved: storage full"</text><text fill="#000000" font-family="Arial" font-size="12" lengthAdjust="spacing" textLength="246.5418" x="204.3556" y="1326.494">changes kept on screen + Retry saving draft</text><rect fill="#FFFFFF" height="36.3441" rx="12.5" ry="12.5" style="stroke:#0B5D6B;stroke-width:0.5;" width="232.8335" x="480.8973" y="1287.3218"/><text fill="#000000" font-family="Arial" font-size="12" lengthAdjust="spacing" textLength="212.8335" x="490.8973" y="1310.1499">"Draft saved on this device at hh:mm"</text><polygon fill="#FFFFFF" points="462.4703,1346.01,474.4703,1358.01,462.4703,1370.01,450.4703,1358.01,462.4703,1346.01" style="stroke:#0B5D6B;stroke-width:0.5;"/><rect fill="#FFFFFF" height="36.3441" rx="12.5" ry="12.5" style="stroke:#0B5D6B;stroke-width:0.5;" width="241.4256" x="341.7575" y="1390.01"/><text fill="#000000" font-family="Arial" font-size="12" lengthAdjust="spacing" textLength="221.4256" x="351.7575" y="1412.8381">Select "Mark ready and queue for sync"</text><polygon fill="#FFFFFF" points="447.4774,1446.3542,477.4632,1446.3542,489.4632,1458.3542,477.4632,1470.3542,447.4774,1470.3542,435.4774,1458.3542,447.4774,1446.3542" style="stroke:#0B5D6B;stroke-width:0.5;"/><text fill="#000000" font-family="Arial" font-size="11" lengthAdjust="spacing" textLength="29.9858" x="447.4774" y="1462.6221">Valid?</text><text fill="#000000" font-family="Arial" font-size="11" lengthAdjust="spacing" textLength="13.4529" x="422.0245" y="1455.1312">no</text><text fill="#000000" font-family="Arial" font-size="11" lengthAdjust="spacing" textLength="17.0829" x="489.4632" y="1455.1312">yes</text><path d="M370.4103,1483.9922 L370.4103,1502.6983 L350.4103,1506.6983 L370.4103,1510.6983 L370.4103,1529.4043 A0,0 0 0 0 370.4103,1529.4043 L591.6105,1529.4043 A0,0 0 0 0 591.6105,1529.4043 L591.6105,1493.9922 L581.6105,1483.9922 L370.4103,1483.9922 A0,0 0 0 0 370.4103,1483.9922 " fill="#FBEED9" style="stroke:#181818;stroke-width:0.5;"/><path d="M581.6105,1483.9922 L581.6105,1493.9922 L591.6105,1493.9922 L581.6105,1483.9922 " fill="#FBEED9" style="stroke:#181818;stroke-width:0.5;"/><text fill="#000000" font-family="Arial" font-size="13" lengthAdjust="spacing" textLength="140.9851" x="376.4103" y="1502.8893">includes privacy guard:</text><text fill="#000000" font-family="Arial" font-size="13" lengthAdjust="spacing" textLength="200.2002" x="376.4103" y="1520.5953">emails / phone numbers blocked</text><rect fill="#FFFFFF" height="52.6882" rx="12.5" ry="12.5" style="stroke:#0B5D6B;stroke-width:0.5;" width="214.3174" x="136.0929" y="1480.3542"/><text fill="#000000" font-family="Arial" font-size="12" lengthAdjust="spacing" textLength="171.0252" x="146.0929" y="1503.1822">S06b error summary (focused)</text><text fill="#000000" font-family="Arial" font-size="12" lengthAdjust="spacing" textLength="194.3174" x="146.0929" y="1519.5264">links to each field, inline messages</text><ellipse cx="243.2516" cy="1564.0424" fill="none" rx="11" ry="11" style="stroke:#222222;stroke-width:1.0;"/><ellipse cx="243.2516" cy="1564.0424" fill="#222222" rx="6" ry="6" style="stroke:#222222;stroke-width:1.0;"/><rect fill="#FFFFFF" height="36.3441" rx="12.5" ry="12.5" style="stroke:#0B5D6B;stroke-width:0.5;" width="140.1568" x="611.6105" y="1480.3542"/><text fill="#000000" font-family="Arial" font-size="12" lengthAdjust="spacing" textLength="120.1568" x="621.6105" y="1503.1822">Plan status = Queued</text><rect fill="none" height="943.5849" style="stroke:#000000;stroke-width:1.5;" width="902.9405" x="11" y="1597.0424"/><path d="M318.0368,1597.0424 L318.0368,1609.1103 L308.0368,1619.1103 L11,1619.1103 " fill="none" style="stroke:#000000;stroke-width:1.5;"/><text fill="#000000" font-family="Arial" font-size="14" lengthAdjust="spacing" textLength="297.0368" x="14" y="1613.0083">WF3 Sync, failure and recovery (FR-05, QR-02)</text><rect fill="#FFFFFF" height="36.3441" rx="12.5" ry="12.5" style="stroke:#0B5D6B;stroke-width:0.5;" width="112.4366" x="406.2519" y="1636.1103"/><text fill="#000000" font-family="Arial" font-size="12" lengthAdjust="spacing" textLength="92.4366" x="416.2519" y="1658.9384">S07 Sync outbox</text><rect fill="#FFFFFF" height="36.3441" rx="12.5" ry="12.5" style="stroke:#0B5D6B;stroke-width:0.5;" width="207.8013" x="358.5696" y="1741.9454"/><text fill="#000000" font-family="Arial" font-size="12" lengthAdjust="spacing" textLength="187.8013" x="368.5696" y="1764.7734">"Queued: waiting for connection"</text><rect fill="#FFFFFF" height="36.3441" rx="12.5" ry="12.5" style="stroke:#0B5D6B;stroke-width:0.5;" width="193.2452" x="365.8477" y="1813.2895"/><text fill="#000000" font-family="Arial" font-size="12" lengthAdjust="spacing" textLength="173.2452" x="375.8477" y="1836.1176">Connection returns (auto sync)</text><polygon fill="#FFFFFF" points="443.0499,1692.4544,481.8906,1692.4544,493.8906,1704.4544,481.8906,1716.4544,443.0499,1716.4544,431.0499,1704.4544,443.0499,1692.4544" style="stroke:#0B5D6B;stroke-width:0.5;"/><text fill="#000000" font-family="Arial" font-size="11" lengthAdjust="spacing" textLength="13.4529" x="466.4703" y="1728.2133">no</text><text fill="#000000" font-family="Arial" font-size="11" lengthAdjust="spacing" textLength="38.8407" x="443.0499" y="1708.7224">Online?</text><polygon fill="#FFFFFF" points="462.4703,1869.6336,474.4703,1881.6336,462.4703,1893.6336,450.4703,1881.6336,462.4703,1869.6336" style="stroke:#0B5D6B;stroke-width:0.5;"/><rect fill="#FFFFFF" height="36.3441" rx="12.5" ry="12.5" style="stroke:#0B5D6B;stroke-width:0.5;" width="108.8366" x="408.052" y="1913.6336"/><text fill="#000000" font-family="Arial" font-size="12" lengthAdjust="spacing" textLength="88.8366" x="418.052" y="1936.4617">Upload attempt</text><polygon fill="#FFFFFF" points="127.1079,1969.9777,159.0297,1969.9777,171.0297,1981.9777,159.0297,1993.9777,127.1079,1993.9777,115.1079,1981.9777,127.1079,1969.9777" style="stroke:#0B5D6B;stroke-width:0.5;"/><text fill="#000000" font-family="Arial" font-size="11" lengthAdjust="spacing" textLength="78.7264" x="147.0688" y="2005.7366">network failure</text><text fill="#000000" font-family="Arial" font-size="11" lengthAdjust="spacing" textLength="31.9218" x="127.1079" y="1986.2457">Result</text><rect fill="#FFFFFF" height="52.6882" rx="12.5" ry="12.5" style="stroke:#0B5D6B;stroke-width:0.5;" width="244.1376" x="21" y="2027.2366"/><text fill="#000000" font-family="Arial" font-size="12" lengthAdjust="spacing" textLength="224.1376" x="31" y="2050.0647">S07c "Upload failed: safe on this device"</text><text fill="#000000" font-family="Arial" font-size="12" lengthAdjust="spacing" textLength="215.5695" x="31" y="2066.4088">auto retry after 20 s, max 5, Retry now</text><polygon fill="#FFFFFF" points="379.6696,1969.9777,509.1277,1969.9777,521.1277,1981.9777,509.1277,1993.9777,379.6696,1993.9777,367.6696,1981.9777,379.6696,1969.9777" style="stroke:#0B5D6B;stroke-width:0.5;"/><text fill="#000000" font-family="Arial" font-size="11" lengthAdjust="spacing" textLength="37.4437" x="448.3987" y="2005.7366">conflict</text><text fill="#000000" font-family="Arial" font-size="11" lengthAdjust="spacing" textLength="129.458" x="379.6696" y="1986.2457">server has newer version</text><text fill="#000000" font-family="Arial" font-size="11" lengthAdjust="spacing" textLength="12.5289" x="521.1277" y="1978.7547">ok</text><rect fill="#FFFFFF" height="52.6882" rx="12.5" ry="12.5" style="stroke:#0B5D6B;stroke-width:0.5;" width="224.1335" x="332.3319" y="2027.2366"/><text fill="#000000" font-family="Arial" font-size="12" lengthAdjust="spacing" textLength="107.0288" x="342.3319" y="2050.0647">S08 Review conflict</text><text fill="#000000" font-family="Arial" font-size="12" lengthAdjust="spacing" textLength="204.1335" x="342.3319" y="2066.4088">per-difference choice (mine / server)</text><rect fill="#FFFFFF" height="36.3441" rx="12.5" ry="12.5" style="stroke:#0B5D6B;stroke-width:0.5;" width="298.5221" x="295.1376" y="2149.4158"/><text fill="#000000" font-family="Arial" font-size="12" lengthAdjust="spacing" textLength="278.5221" x="305.1376" y="2172.2439">S08b error "Choose a version for each difference"</text><polygon fill="#FFFFFF" points="398.925,2099.9248,489.8724,2099.9248,501.8724,2111.9248,489.8724,2123.9248,398.925,2123.9248,386.925,2111.9248,398.925,2099.9248" style="stroke:#0B5D6B;stroke-width:0.5;"/><text fill="#000000" font-family="Arial" font-size="11" lengthAdjust="spacing" textLength="13.4529" x="448.3987" y="2135.6838">no</text><text fill="#000000" font-family="Arial" font-size="11" lengthAdjust="spacing" textLength="90.9474" x="398.925" y="2116.1928">All choices made?</text><polygon fill="#FFFFFF" points="444.3987,2205.7599,456.3987,2217.7599,444.3987,2229.7599,432.3987,2217.7599,444.3987,2205.7599" style="stroke:#0B5D6B;stroke-width:0.5;"/><rect fill="#FFFFFF" height="36.3441" rx="12.5" ry="12.5" style="stroke:#0B5D6B;stroke-width:0.5;" width="307.4501" x="290.6736" y="2249.7599"/><text fill="#000000" font-family="Arial" font-size="12" lengthAdjust="spacing" textLength="287.4501" x="300.6736" y="2272.588">Merged plan saved on device FIRST, then uploaded</text><path d="M567.0993,2359.2331 L567.0993,2377.9391 L547.0993,2381.9391 L567.0993,2385.9391 L567.0993,2404.6451 A0,0 0 0 0 567.0993,2404.6451 L831.9405,2404.6451 A0,0 0 0 0 831.9405,2404.6451 L831.9405,2369.2331 L821.9405,2359.2331 L567.0993,2359.2331 A0,0 0 0 0 567.0993,2359.2331 " fill="#FBEED9" style="stroke:#181818;stroke-width:0.5;"/><path d="M821.9405,2359.2331 L821.9405,2369.2331 L831.9405,2369.2331 L821.9405,2359.2331 " fill="#FBEED9" style="stroke:#181818;stroke-width:0.5;"/><text fill="#000000" font-family="Arial" font-size="13" lengthAdjust="spacing" textLength="131.8071" x="573.0993" y="2378.1301">Fix from A2 feedback:</text><text fill="#000000" font-family="Arial" font-size="13" lengthAdjust="spacing" textLength="243.8412" x="573.0993" y="2395.8361">failure after merged-plan upload shown</text><rect fill="#FFFFFF" height="52.6882" rx="12.5" ry="12.5" style="stroke:#0B5D6B;stroke-width:0.5;" width="205.4013" x="341.698" y="2355.595"/><text fill="#000000" font-family="Arial" font-size="12" lengthAdjust="spacing" textLength="185.4013" x="351.698" y="2378.423">S07c failure after merged upload</text><text fill="#000000" font-family="Arial" font-size="12" lengthAdjust="spacing" textLength="172.0932" x="351.698" y="2394.7672">merged copy kept + Retry now</text><polygon fill="#FFFFFF" points="394.6625,2306.104,494.1348,2306.104,506.1348,2318.104,494.1348,2330.104,394.6625,2330.104,382.6625,2318.104,394.6625,2306.104" style="stroke:#0B5D6B;stroke-width:0.5;"/><text fill="#000000" font-family="Arial" font-size="11" lengthAdjust="spacing" textLength="13.4529" x="448.3987" y="2341.8629">no</text><text fill="#000000" font-family="Arial" font-size="11" lengthAdjust="spacing" textLength="99.4723" x="394.6625" y="2322.372">Merged upload ok?</text><polygon fill="#FFFFFF" points="444.3987,2428.2832,456.3987,2440.2832,444.3987,2452.2832,432.3987,2440.2832,444.3987,2428.2832" style="stroke:#0B5D6B;stroke-width:0.5;"/><rect fill="#FFFFFF" height="36.3441" rx="12.5" ry="12.5" style="stroke:#0B5D6B;stroke-width:0.5;" width="173.5291" x="375.7057" y="2492.2832"/><text fill="#000000" font-family="Arial" font-size="12" lengthAdjust="spacing" textLength="153.5291" x="385.7057" y="2515.1113">S07d "Synced" + history log</text><rect fill="#FFFFFF" height="36.3441" rx="12.5" ry="12.5" style="stroke:#0B5D6B;stroke-width:0.5;" width="333.2742" x="295.8331" y="2560.6273"/><text fill="#000000" font-family="Arial" font-size="12" lengthAdjust="spacing" textLength="313.2742" x="305.8331" y="2583.4554">S10 Sign out and lock (another profile cannot see plans)</text><ellipse cx="462.4703" cy="2627.9714" fill="none" rx="11" ry="11" style="stroke:#222222;stroke-width:1.0;"/><ellipse cx="462.4703" cy="2627.9714" fill="#222222" rx="6" ry="6" style="stroke:#222222;stroke-width:1.0;"/><line style="stroke:#181818;stroke-width:1.0;" x1="462.4703" x2="462.4703" y1="70.0679" y2="90.0679"/><polygon fill="#181818" points="458.4703,80.0679,462.4703,90.0679,466.4703,80.0679,462.4703,84.0679" style="stroke:#181818;stroke-width:1.0;"/><line style="stroke:#181818;stroke-width:1.0;" x1="462.4703" x2="462.4703" y1="142.7561" y2="167.9711"/><polygon fill="#181818" points="458.4703,157.9711,462.4703,167.9711,466.4703,157.9711,462.4703,161.9711" style="stroke:#181818;stroke-width:1.0;"/><line style="stroke:#181818;stroke-width:1.0;" x1="462.4703" x2="462.4703" y1="433.4654" y2="464.0673"/><polygon fill="#181818" points="458.4703,454.0673,462.4703,464.0673,466.4703,454.0673,462.4703,458.0673" style="stroke:#181818;stroke-width:1.0;"/><line style="stroke:#181818;stroke-width:1.0;" x1="462.4703" x2="462.4703" y1="500.4114" y2="520.4114"/><polygon fill="#181818" points="458.4703,510.4114,462.4703,520.4114,466.4703,510.4114,462.4703,514.4114" style="stroke:#181818;stroke-width:1.0;"/><line style="stroke:#181818;stroke-width:1.0;" x1="462.4703" x2="462.4703" y1="350.0713" y2="380.7772"/><polygon fill="#181818" points="458.4703,370.7772,462.4703,380.7772,466.4703,370.7772,462.4703,374.7772" style="stroke:#181818;stroke-width:1.0;"/><line style="stroke:#181818;stroke-width:1.0;" x1="529.5579" x2="865.2862" y1="338.0713" y2="338.0713"/><polygon fill="#181818" points="861.2862,448.6803,865.2862,458.6803,869.2862,448.6803,865.2862,452.6803" style="stroke:#181818;stroke-width:1.0;"/><line style="stroke:#181818;stroke-width:1.0;" x1="865.2862" x2="865.2862" y1="338.0713" y2="564.4114"/><line style="stroke:#181818;stroke-width:1.0;" x1="865.2862" x2="462.4703" y1="564.4114" y2="564.4114"/><line style="stroke:#181818;stroke-width:1.0;" x1="462.4703" x2="462.4703" y1="564.4114" y2="584.4114"/><polygon fill="#181818" points="458.4703,574.4114,462.4703,584.4114,466.4703,574.4114,462.4703,578.4114" style="stroke:#181818;stroke-width:1.0;"/><line style="stroke:#181818;stroke-width:1.0;" x1="462.4703" x2="462.4703" y1="306.0713" y2="326.0713"/><polygon fill="#181818" points="458.4703,316.0713,462.4703,326.0713,466.4703,316.0713,462.4703,320.0713" style="stroke:#181818;stroke-width:1.0;"/><line style="stroke:#181818;stroke-width:1.0;" x1="462.4703" x2="462.4703" y1="637.0996" y2="657.0996"/><polygon fill="#181818" points="458.4703,647.0996,462.4703,657.0996,466.4703,647.0996,462.4703,651.0996" style="stroke:#181818;stroke-width:1.0;"/><line style="stroke:#181818;stroke-width:1.0;" x1="796.1022" x2="796.1022" y1="938.8774" y2="960.2215"/><line style="stroke:#181818;stroke-width:1.0;" x1="796.1022" x2="21.5037" y1="960.2215" y2="960.2215"/><line style="stroke:#181818;stroke-width:1.0;" x1="21.5037" x2="21.5037" y1="960.2215" y2="1051.2215"/><line style="stroke:#181818;stroke-width:1.0;" x1="21.5037" x2="450.4703" y1="1051.2215" y2="1051.2215"/><polygon fill="#181818" points="440.4703,1047.2215,450.4703,1051.2215,440.4703,1055.2215,444.4703,1051.2215" style="stroke:#181818;stroke-width:1.0;"/><line style="stroke:#181818;stroke-width:1.0;" x1="639.528" x2="596.1411" y1="880.5333" y2="880.5333"/><line style="stroke:#181818;stroke-width:1.0;" x1="596.1411" x2="596.1411" y1="880.5333" y2="902.5333"/><polygon fill="#181818" points="592.1411,892.5333,596.1411,902.5333,600.1411,892.5333,596.1411,896.5333" style="stroke:#181818;stroke-width:1.0;"/><line style="stroke:#181818;stroke-width:1.0;" x1="752.7154" x2="796.1022" y1="880.5333" y2="880.5333"/><line style="stroke:#181818;stroke-width:1.0;" x1="796.1022" x2="796.1022" y1="880.5333" y2="902.5333"/><polygon fill="#181818" points="792.1022,892.5333,796.1022,902.5333,800.1022,892.5333,796.1022,896.5333" style="stroke:#181818;stroke-width:1.0;"/><line style="stroke:#181818;stroke-width:1.0;" x1="596.1411" x2="596.1411" y1="955.2215" y2="960.2215"/><line style="stroke:#181818;stroke-width:1.0;" x1="596.1411" x2="696.1217" y1="960.2215" y2="960.2215"/><line style="stroke:#181818;stroke-width:1.0;" x1="696.1217" x2="696.1217" y1="960.2215" y2="975.2215"/><polygon fill="#181818" points="692.1217,965.2215,696.1217,975.2215,700.1217,965.2215,696.1217,969.2215" style="stroke:#181818;stroke-width:1.0;"/><line style="stroke:#181818;stroke-width:1.0;" x1="696.1217" x2="696.1217" y1="833.5333" y2="868.5333"/><polygon fill="#181818" points="692.1217,858.5333,696.1217,868.5333,700.1217,858.5333,696.1217,862.5333" style="stroke:#181818;stroke-width:1.0;"/><line style="stroke:#181818;stroke-width:1.0;" x1="144.6985" x2="144.6985" y1="781.4437" y2="816.4256"/><polygon fill="#181818" points="140.6985,806.4256,144.6985,816.4256,148.6985,806.4256,144.6985,810.4256" style="stroke:#181818;stroke-width:1.0;"/><line style="stroke:#181818;stroke-width:1.0;" x1="144.6985" x2="144.6985" y1="852.7697" y2="975.2215"/><polygon fill="#181818" points="140.6985,965.2215,144.6985,975.2215,148.6985,965.2215,144.6985,969.2215" style="stroke:#181818;stroke-width:1.0;"/><line style="stroke:#181818;stroke-width:1.0;" x1="375.7039" x2="375.7039" y1="781.4437" y2="816.4256"/><polygon fill="#181818" points="371.7039,806.4256,375.7039,816.4256,379.7039,806.4256,375.7039,810.4256" style="stroke:#181818;stroke-width:1.0;"/><line style="stroke:#181818;stroke-width:1.0;" x1="375.7039" x2="375.7039" y1="869.1139" y2="975.2215"/><polygon fill="#181818" points="371.7039,965.2215,375.7039,975.2215,379.7039,965.2215,375.7039,969.2215" style="stroke:#181818;stroke-width:1.0;"/><line style="stroke:#181818;stroke-width:1.0;" x1="176.1188" x2="307.2083" y1="769.4437" y2="769.4437"/><polygon fill="#181818" points="297.2083,765.4437,307.2083,769.4437,297.2083,773.4437,301.2083,769.4437" style="stroke:#181818;stroke-width:1.0;"/><line style="stroke:#181818;stroke-width:1.0;" x1="462.4703" x2="462.4703" y1="737.4437" y2="742.4437"/><line style="stroke:#181818;stroke-width:1.0;" x1="462.4703" x2="144.6985" y1="742.4437" y2="742.4437"/><line style="stroke:#181818;stroke-width:1.0;" x1="144.6985" x2="144.6985" y1="742.4437" y2="757.4437"/><polygon fill="#181818" points="140.6985,747.4437,144.6985,757.4437,148.6985,747.4437,144.6985,751.4437" style="stroke:#181818;stroke-width:1.0;"/><line style="stroke:#181818;stroke-width:1.0;" x1="444.1995" x2="696.1217" y1="769.4437" y2="769.4437"/><line style="stroke:#181818;stroke-width:1.0;" x1="696.1217" x2="696.1217" y1="769.4437" y2="797.1892"/><polygon fill="#181818" points="692.1217,787.1892,696.1217,797.1892,700.1217,787.1892,696.1217,791.1892" style="stroke:#181818;stroke-width:1.0;"/><line style="stroke:#181818;stroke-width:1.0;" x1="144.6985" x2="696.1217" y1="975.2215" y2="975.2215"/><line style="stroke:#181818;stroke-width:1.0;" x1="501.1011" x2="905.4368" y1="1007.2215" y2="1007.2215"/><polygon fill="#181818" points="901.4368,898.5333,905.4368,888.5333,909.4368,898.5333,905.4368,894.5333" style="stroke:#181818;stroke-width:1.0;"/><line style="stroke:#181818;stroke-width:1.0;" x1="905.4368" x2="905.4368" y1="725.4437" y2="1007.2215"/><line style="stroke:#181818;stroke-width:1.0;" x1="905.4368" x2="474.4703" y1="725.4437" y2="725.4437"/><polygon fill="#181818" points="484.4703,721.4437,474.4703,725.4437,484.4703,729.4437,480.4703,725.4437" style="stroke:#181818;stroke-width:1.0;"/><line style="stroke:#181818;stroke-width:1.0;" x1="462.4703" x2="462.4703" y1="975.2215" y2="995.2215"/><polygon fill="#181818" points="458.4703,985.2215,462.4703,995.2215,466.4703,985.2215,462.4703,989.2215" style="stroke:#181818;stroke-width:1.0;"/><line style="stroke:#181818;stroke-width:1.0;" x1="462.4703" x2="462.4703" y1="1019.2215" y2="1039.2215"/><polygon fill="#181818" points="458.4703,1029.2215,462.4703,1039.2215,466.4703,1029.2215,462.4703,1033.2215" style="stroke:#181818;stroke-width:1.0;"/><line style="stroke:#181818;stroke-width:1.0;" x1="462.4703" x2="462.4703" y1="693.4437" y2="713.4437"/><polygon fill="#181818" points="458.4703,703.4437,462.4703,713.4437,466.4703,703.4437,462.4703,707.4437" style="stroke:#181818;stroke-width:1.0;"/><line style="stroke:#181818;stroke-width:1.0;" x1="462.4703" x2="462.4703" y1="204.3152" y2="253.3831"/><polygon fill="#181818" points="458.4703,243.3831,462.4703,253.3831,466.4703,243.3831,462.4703,247.3831" style="stroke:#181818;stroke-width:1.0;"/><line style="stroke:#181818;stroke-width:1.0;" x1="462.4703" x2="462.4703" y1="1176.9777" y2="1196.9777"/><polygon fill="#181818" points="458.4703,1186.9777,462.4703,1196.9777,466.4703,1186.9777,462.4703,1190.9777" style="stroke:#181818;stroke-width:1.0;"/><line style="stroke:#181818;stroke-width:1.0;" x1="390.3062" x2="327.6264" y1="1265.3218" y2="1265.3218"/><line style="stroke:#181818;stroke-width:1.0;" x1="327.6264" x2="327.6264" y1="1265.3218" y2="1287.3218"/><polygon fill="#181818" points="323.6264,1277.3218,327.6264,1287.3218,331.6264,1277.3218,327.6264,1281.3218" style="stroke:#181818;stroke-width:1.0;"/><line style="stroke:#181818;stroke-width:1.0;" x1="534.6343" x2="597.3141" y1="1265.3218" y2="1265.3218"/><line style="stroke:#181818;stroke-width:1.0;" x1="597.3141" x2="597.3141" y1="1265.3218" y2="1287.3218"/><polygon fill="#181818" points="593.3141,1277.3218,597.3141,1287.3218,601.3141,1277.3218,597.3141,1281.3218" style="stroke:#181818;stroke-width:1.0;"/><line style="stroke:#181818;stroke-width:1.0;" x1="327.6264" x2="327.6264" y1="1340.01" y2="1358.01"/><line style="stroke:#181818;stroke-width:1.0;" x1="327.6264" x2="450.4703" y1="1358.01" y2="1358.01"/><polygon fill="#181818" points="440.4703,1354.01,450.4703,1358.01,440.4703,1362.01,444.4703,1358.01" style="stroke:#181818;stroke-width:1.0;"/><line style="stroke:#181818;stroke-width:1.0;" x1="597.3141" x2="597.3141" y1="1323.6659" y2="1358.01"/><line style="stroke:#181818;stroke-width:1.0;" x1="597.3141" x2="474.4703" y1="1358.01" y2="1358.01"/><polygon fill="#181818" points="484.4703,1354.01,474.4703,1358.01,484.4703,1362.01,480.4703,1358.01" style="stroke:#181818;stroke-width:1.0;"/><line style="stroke:#181818;stroke-width:1.0;" x1="462.4703" x2="462.4703" y1="1233.3218" y2="1253.3218"/><polygon fill="#181818" points="458.4703,1243.3218,462.4703,1253.3218,466.4703,1243.3218,462.4703,1247.3218" style="stroke:#181818;stroke-width:1.0;"/><line style="stroke:#181818;stroke-width:1.0;" x1="462.4703" x2="462.4703" y1="1370.01" y2="1390.01"/><polygon fill="#181818" points="458.4703,1380.01,462.4703,1390.01,466.4703,1380.01,462.4703,1384.01" style="stroke:#181818;stroke-width:1.0;"/><line style="stroke:#181818;stroke-width:1.0;" x1="243.2516" x2="243.2516" y1="1533.0424" y2="1553.0424"/><polygon fill="#181818" points="239.2516,1543.0424,243.2516,1553.0424,247.2516,1543.0424,243.2516,1547.0424" style="stroke:#181818;stroke-width:1.0;"/><line style="stroke:#181818;stroke-width:1.0;" x1="435.4774" x2="243.2516" y1="1458.3542" y2="1458.3542"/><line style="stroke:#181818;stroke-width:1.0;" x1="243.2516" x2="243.2516" y1="1458.3542" y2="1480.3542"/><polygon fill="#181818" points="239.2516,1470.3542,243.2516,1480.3542,247.2516,1470.3542,243.2516,1474.3542" style="stroke:#181818;stroke-width:1.0;"/><line style="stroke:#181818;stroke-width:1.0;" x1="489.4632" x2="681.6889" y1="1458.3542" y2="1458.3542"/><line style="stroke:#181818;stroke-width:1.0;" x1="681.6889" x2="681.6889" y1="1458.3542" y2="1480.3542"/><polygon fill="#181818" points="677.6889,1470.3542,681.6889,1480.3542,685.6889,1470.3542,681.6889,1474.3542" style="stroke:#181818;stroke-width:1.0;"/><line style="stroke:#181818;stroke-width:1.0;" x1="681.6889" x2="681.6889" y1="1516.6983" y2="1580.0424"/><line style="stroke:#181818;stroke-width:1.0;" x1="681.6889" x2="462.4703" y1="1580.0424" y2="1580.0424"/><line style="stroke:#181818;stroke-width:1.0;" x1="462.4703" x2="462.4703" y1="1580.0424" y2="1636.1103"/><polygon fill="#181818" points="458.4703,1626.1103,462.4703,1636.1103,466.4703,1626.1103,462.4703,1630.1103" style="stroke:#181818;stroke-width:1.0;"/><line style="stroke:#181818;stroke-width:1.0;" x1="462.4703" x2="462.4703" y1="1426.3542" y2="1446.3542"/><polygon fill="#181818" points="458.4703,1436.3542,462.4703,1446.3542,466.4703,1436.3542,462.4703,1440.3542" style="stroke:#181818;stroke-width:1.0;"/><line style="stroke:#181818;stroke-width:1.0;" x1="462.4703" x2="462.4703" y1="1063.2215" y2="1124.2895"/><polygon fill="#181818" points="458.4703,1114.2895,462.4703,1124.2895,466.4703,1114.2895,462.4703,1118.2895" style="stroke:#181818;stroke-width:1.0;"/><line style="stroke:#181818;stroke-width:1.0;" x1="462.4703" x2="462.4703" y1="1778.2895" y2="1813.2895"/><polygon fill="#181818" points="458.4703,1803.2895,462.4703,1813.2895,466.4703,1803.2895,462.4703,1807.2895" style="stroke:#181818;stroke-width:1.0;"/><line style="stroke:#181818;stroke-width:1.0;" x1="462.4703" x2="462.4703" y1="1716.4544" y2="1741.9454"/><polygon fill="#181818" points="458.4703,1731.9454,462.4703,1741.9454,466.4703,1731.9454,462.4703,1735.9454" style="stroke:#181818;stroke-width:1.0;"/><line style="stroke:#181818;stroke-width:1.0;" x1="493.8906" x2="576.3709" y1="1704.4544" y2="1704.4544"/><polygon fill="#181818" points="572.3709,1785.7895,576.3709,1795.7895,580.3709,1785.7895,576.3709,1789.7895" style="stroke:#181818;stroke-width:1.0;"/><line style="stroke:#181818;stroke-width:1.0;" x1="576.3709" x2="576.3709" y1="1704.4544" y2="1881.6336"/><line style="stroke:#181818;stroke-width:1.0;" x1="576.3709" x2="474.4703" y1="1881.6336" y2="1881.6336"/><polygon fill="#181818" points="484.4703,1877.6336,474.4703,1881.6336,484.4703,1885.6336,480.4703,1881.6336" style="stroke:#181818;stroke-width:1.0;"/><line style="stroke:#181818;stroke-width:1.0;" x1="462.4703" x2="462.4703" y1="1849.6336" y2="1869.6336"/><polygon fill="#181818" points="458.4703,1859.6336,462.4703,1869.6336,466.4703,1859.6336,462.4703,1863.6336" style="stroke:#181818;stroke-width:1.0;"/><line style="stroke:#181818;stroke-width:1.0;" x1="462.4703" x2="462.4703" y1="1672.4544" y2="1692.4544"/><polygon fill="#181818" points="458.4703,1682.4544,462.4703,1692.4544,466.4703,1682.4544,462.4703,1686.4544" style="stroke:#181818;stroke-width:1.0;"/><line style="stroke:#181818;stroke-width:1.0;" x1="462.4703" x2="462.4703" y1="1893.6336" y2="1913.6336"/><polygon fill="#181818" points="458.4703,1903.6336,462.4703,1913.6336,466.4703,1903.6336,462.4703,1907.6336" style="stroke:#181818;stroke-width:1.0;"/><line style="stroke:#181818;stroke-width:1.0;" x1="444.3987" x2="444.3987" y1="2123.9248" y2="2149.4158"/><polygon fill="#181818" points="440.3987,2139.4158,444.3987,2149.4158,448.3987,2139.4158,444.3987,2143.4158" style="stroke:#181818;stroke-width:1.0;"/><line style="stroke:#181818;stroke-width:1.0;" x1="501.8724" x2="603.6597" y1="2111.9248" y2="2111.9248"/><polygon fill="#181818" points="599.6597,2157.5878,603.6597,2167.5878,607.6597,2157.5878,603.6597,2161.5878" style="stroke:#181818;stroke-width:1.0;"/><line style="stroke:#181818;stroke-width:1.0;" x1="603.6597" x2="603.6597" y1="2111.9248" y2="2217.7599"/><line style="stroke:#181818;stroke-width:1.0;" x1="603.6597" x2="456.3987" y1="2217.7599" y2="2217.7599"/><polygon fill="#181818" points="466.3987,2213.7599,456.3987,2217.7599,466.3987,2221.7599,462.3987,2217.7599" style="stroke:#181818;stroke-width:1.0;"/><line style="stroke:#181818;stroke-width:1.0;" x1="444.3987" x2="444.3987" y1="2185.7599" y2="2205.7599"/><polygon fill="#181818" points="440.3987,2195.7599,444.3987,2205.7599,448.3987,2195.7599,444.3987,2199.7599" style="stroke:#181818;stroke-width:1.0;"/><line style="stroke:#181818;stroke-width:1.0;" x1="444.3987" x2="444.3987" y1="2079.9248" y2="2099.9248"/><polygon fill="#181818" points="440.3987,2089.9248,444.3987,2099.9248,448.3987,2089.9248,444.3987,2093.9248" style="stroke:#181818;stroke-width:1.0;"/><line style="stroke:#181818;stroke-width:1.0;" x1="444.3987" x2="444.3987" y1="2229.7599" y2="2249.7599"/><polygon fill="#181818" points="440.3987,2239.7599,444.3987,2249.7599,448.3987,2239.7599,444.3987,2243.7599" style="stroke:#181818;stroke-width:1.0;"/><line style="stroke:#181818;stroke-width:1.0;" x1="444.3987" x2="444.3987" y1="2330.104" y2="2355.595"/><polygon fill="#181818" points="440.3987,2345.595,444.3987,2355.595,448.3987,2345.595,444.3987,2349.595" style="stroke:#181818;stroke-width:1.0;"/><line style="stroke:#181818;stroke-width:1.0;" x1="506.1348" x2="841.9405" y1="2318.104" y2="2318.104"/><polygon fill="#181818" points="837.9405,2371.9391,841.9405,2381.9391,845.9405,2371.9391,841.9405,2375.9391" style="stroke:#181818;stroke-width:1.0;"/><line style="stroke:#181818;stroke-width:1.0;" x1="841.9405" x2="841.9405" y1="2318.104" y2="2440.2832"/><line style="stroke:#181818;stroke-width:1.0;" x1="841.9405" x2="456.3987" y1="2440.2832" y2="2440.2832"/><polygon fill="#181818" points="466.3987,2436.2832,456.3987,2440.2832,466.3987,2444.2832,462.3987,2440.2832" style="stroke:#181818;stroke-width:1.0;"/><line style="stroke:#181818;stroke-width:1.0;" x1="444.3987" x2="444.3987" y1="2408.2832" y2="2428.2832"/><polygon fill="#181818" points="440.3987,2418.2832,444.3987,2428.2832,448.3987,2418.2832,444.3987,2422.2832" style="stroke:#181818;stroke-width:1.0;"/><line style="stroke:#181818;stroke-width:1.0;" x1="444.3987" x2="444.3987" y1="2286.104" y2="2306.104"/><polygon fill="#181818" points="440.3987,2296.104,444.3987,2306.104,448.3987,2296.104,444.3987,2300.104" style="stroke:#181818;stroke-width:1.0;"/><line style="stroke:#181818;stroke-width:1.0;" x1="143.0688" x2="143.0688" y1="1993.9777" y2="2027.2366"/><polygon fill="#181818" points="139.0688,2017.2366,143.0688,2027.2366,147.0688,2017.2366,143.0688,2021.2366" style="stroke:#181818;stroke-width:1.0;"/><line style="stroke:#181818;stroke-width:1.0;" x1="143.0688" x2="143.0688" y1="2079.9248" y2="2472.2832"/><polygon fill="#181818" points="139.0688,2462.2832,143.0688,2472.2832,147.0688,2462.2832,143.0688,2466.2832" style="stroke:#181818;stroke-width:1.0;"/><line style="stroke:#181818;stroke-width:1.0;" x1="444.3987" x2="444.3987" y1="1993.9777" y2="2027.2366"/><polygon fill="#181818" points="440.3987,2017.2366,444.3987,2027.2366,448.3987,2017.2366,444.3987,2021.2366" style="stroke:#181818;stroke-width:1.0;"/><line style="stroke:#181818;stroke-width:1.0;" x1="444.3987" x2="444.3987" y1="2452.2832" y2="2472.2832"/><polygon fill="#181818" points="440.3987,2462.2832,444.3987,2472.2832,448.3987,2462.2832,444.3987,2466.2832" style="stroke:#181818;stroke-width:1.0;"/><line style="stroke:#181818;stroke-width:1.0;" x1="171.0297" x2="367.6696" y1="1981.9777" y2="1981.9777"/><polygon fill="#181818" points="357.6696,1977.9777,367.6696,1981.9777,357.6696,1985.9777,361.6696,1981.9777" style="stroke:#181818;stroke-width:1.0;"/><line style="stroke:#181818;stroke-width:1.0;" x1="462.4703" x2="462.4703" y1="1949.9777" y2="1954.9777"/><line style="stroke:#181818;stroke-width:1.0;" x1="462.4703" x2="143.0688" y1="1954.9777" y2="1954.9777"/><line style="stroke:#181818;stroke-width:1.0;" x1="143.0688" x2="143.0688" y1="1954.9777" y2="1969.9777"/><polygon fill="#181818" points="139.0688,1959.9777,143.0688,1969.9777,147.0688,1959.9777,143.0688,1963.9777" style="stroke:#181818;stroke-width:1.0;"/><line style="stroke:#181818;stroke-width:1.0;" x1="521.1277" x2="888.9405" y1="1981.9777" y2="1981.9777"/><line style="stroke:#181818;stroke-width:1.0;" x1="888.9405" x2="888.9405" y1="1981.9777" y2="2472.2832"/><polygon fill="#181818" points="884.9405,2462.2832,888.9405,2472.2832,892.9405,2462.2832,888.9405,2466.2832" style="stroke:#181818;stroke-width:1.0;"/><line style="stroke:#181818;stroke-width:1.0;" x1="143.0688" x2="888.9405" y1="2472.2832" y2="2472.2832"/><line style="stroke:#181818;stroke-width:1.0;" x1="462.4703" x2="462.4703" y1="2472.2832" y2="2492.2832"/><polygon fill="#181818" points="458.4703,2482.2832,462.4703,2492.2832,466.4703,2482.2832,462.4703,2486.2832" style="stroke:#181818;stroke-width:1.0;"/><line style="stroke:#181818;stroke-width:1.0;" x1="462.4703" x2="462.4703" y1="2528.6273" y2="2560.6273"/><polygon fill="#181818" points="458.4703,2550.6273,462.4703,2560.6273,466.4703,2550.6273,462.4703,2554.6273" style="stroke:#181818;stroke-width:1.0;"/><line style="stroke:#181818;stroke-width:1.0;" x1="462.4703" x2="462.4703" y1="2596.9714" y2="2616.9714"/><polygon fill="#181818" points="458.4703,2606.9714,462.4703,2616.9714,466.4703,2606.9714,462.4703,2610.9714" style="stroke:#181818;stroke-width:1.0;"/><!--SRC=[ZLPDSzis4BtxL-oeqnbfBBcsbTYfF6t7NvhcO2UnqkQY2qGkHLGam0AWPBNJ_zu7WAIas9b93Wv50llnzktRTT8LJBFFzmyFmZ5TZwaosccthPZMPoTdD2AXb7Ruc59jsL1Mw0trlqpFXlHbUkx_Z0T7TYLL9OmeAULCr8MRQkKUHGcBHefYx_jrukHQkksDI5PBeskLtkf26_fX6lwzTbARb4rpwlJcxTt5pTufnCOlRTtStz_zV6ITCEveCZizevbSAfAAj2AR2uDaKbxBXEUgd-HQM_PvPn9O7DERKIgNqj77zu-3goFlW8nSvcv2iwSHR1Kw4GM9965hASavMStLncYrz3Tez2ivVdR4ncWpfBVaZ6JhNuzFoL8bWE9SNNjB4_ooi2uAO8gG-hDR6f-CJzuDVD3dzBi6W7rauMexeG-ga8hf9_gGPU79vdgZI5YI2T8w3cuHC71nqacywg5AD9KgHGrJic8DLxZGu4gwiTEV-c26vFyx7_JetoCY-1ytL-Dnv02i2bvpCIIdAvaCgHJFv6J9_icnBxGTqWRbiWY3I6RKlrRRdKES0bpsjm6vd1NrbHxWM7IseDwZZYSaaDnvxSsLuLAlUQGLZr0YUA95xPnM5adV5YoCH_0gcDglrbG-KsOqc7HE6NEw04qcSx2P35jmb19XKf8MFnKOnkbmhgmcGQMqTY-8BGxw7g05CEU24_H2ZFiw_QksZc9GDaPW0GuUk02d-bksFaNObrb4zKt7Qp3G2La0LIl_QQkvu4mRfXJFXHRfa6GfbjmK5sd2ZnAupm7XoIo4GxsPhorkTZK5oNh-XE6AXGk1-N943hqeG1DPe2prRcEsWI-RtFT4OxKNC_IfUMFtIjVBl6aaifL8lcLvqPf-X5sEry9v5FUOfeOHS1NV41ojTduw25jJYM_KfV6jjq3X- -UdFm9ohYBbsZnljL80nZT1paNwIbZH6bFlhe4QwW1mJLsXkWWhT17Qt6k2fLHQJnPEMoSlOelsqbYArEkCoq6j24xlgZkrC2nMhP665hkdMAu6zVuJExCDTHXuclODZzW7QNqsU5zoB1Aapw4yFfJlu7-q2dj910dH-YzeQcyDl3_wxr13pkccbWMK0En7O-1bLK173kHZ7ENZpP0-UZ7PgSW5VVI7EPKE1AXCQE42FaDaDe3LzXdQprSIR2-bgXtRFM69Gbj8wuQubR7ReZTKKjG-e25v5L0GXWHJm8NMk8T7welQwO3HwSabr5TaNZrO93di2RNaJgZk3BxHnaZdG1HW4Iktnvo9RstZkp6hYw9Jhei470gNswP93q-2JD6NfHLNBeoW19JtajrLsCjDwgrS7RqWrwInRrzX5e4jUJufoq2ndSuqkl0Wp0ga4kasZ82_QwwZJjYjIdfjxd-AGgQlgV95sxYsBak1IFkPJY0jwM3kXMHbFL01pKoYpNn50YLAy0JfsvUQ74gM0ehAoBL8jhIiqLTW9PVGGelfLkNGUL9rkV14Ns3OhXgvVKrP4MRWLnoIz0jzyYccEp2-ulAOPiXyI1cyrOO3AeOJZ1UVdQVmso5zEXo4b-4EeSaM-hd5x1jAEkd502Qq4N2AgdgqaqwE6YMOx0cKOLSRpBB0rL2OmK4j_wY2F0aGiwnSw_yfZB3EFJlCtLMRLbV0Iv2pkUy_1MgYURwMfxaAlarWO-oHSomhSS83a4XJfJSjEtq4M0Q16kLOG1Hly8HVlXdRc90q129nNJ3lO6SjUKFj5wWi6onRMORfgq1ch6AUq_qoBZhHGoFiOPieYkQCHMZfDyRDksxStCRLJhIXXM84lkwSjaEjq-B90vib6Ys8NDTpJRjDtp_DFW-Zrpe0syu47rzpCtuWlNezFXIber_0kjo_DbVDpqHNswWOnuS5-CuzvpKVev1K4r_OE0wIZwsbLr_jB9T-h86N68o81Ro1kcsn1Y-lq5wJsTbfNA_H8A6VVCk2pGWnPzFjrSqEPJ7hVH1-Nlk6_Xy0]--></g></svg>